HIERARCHY
ROOT Hips
{
	OFFSET 0.000000 0.000000 0.000000
	CHANNELS 6 Xposition Yposition Zposition Xrotation Yrotation Zrotation
	JOINT LeftUpLeg_virtual
	{
		OFFSET 0.000000 0.000000 0.000000
		CHANNELS 3 Xrotation Yrotation Zrotation
		JOINT LeftUpLeg
		{
			OFFSET 13.026900 -6.336304 -1.092800
			CHANNELS 3 Xrotation Yrotation Zrotation
			JOINT LeftLeg
			{
				OFFSET 0.524474 -46.096886 9.782700
				CHANNELS 3 Xrotation Yrotation Zrotation
				JOINT LeftFoot
				{
					OFFSET -0.524474 -53.427422 -12.948200
					CHANNELS 3 Xrotation Yrotation Zrotation
					JOINT LeftToeBase
					{
						OFFSET 0.192200 -14.009700 16.364100
						CHANNELS 3 Xrotation Yrotation Zrotation
						JOINT LeftToe_End
						{
							OFFSET -1.784700 -0.561700 9.474800
							CHANNELS 3 Xrotation Yrotation Zrotation
							End Site
							{
								OFFSET 0 0 0
							}
						}
					}
				}
			}
		}
	}
	JOINT RightUpLeg_virtual
	{
		OFFSET 0.000000 0.000000 0.000000
		CHANNELS 3 Xrotation Yrotation Zrotation
		JOINT RightUpLeg
		{
			OFFSET -12.883000 -6.336304 -1.092800
			CHANNELS 3 Xrotation Yrotation Zrotation
			JOINT RightLeg
			{
				OFFSET -0.524587 -46.096825 9.782800
				CHANNELS 3 Xrotation Yrotation Zrotation
				JOINT RightFoot
				{
					OFFSET 0.524587 -53.427383 -12.948300
					CHANNELS 3 Xrotation Yrotation Zrotation
					JOINT RightToeBase
					{
						OFFSET -0.192200 -14.009700 16.364100
						CHANNELS 3 Xrotation Yrotation Zrotation
						JOINT RightToe_End
						{
							OFFSET 1.784700 -0.561700 9.474800
							CHANNELS 3 Xrotation Yrotation Zrotation
							End Site
							{
								OFFSET 0 0 0
							}
						}
					}
				}
			}
		}
	}
	JOINT Spine_virtual
	{
		OFFSET 0.000000 0.000000 0.000000
		CHANNELS 3 Xrotation Yrotation Zrotation
		JOINT Spine
		{
			OFFSET 0.072000 7.257294 -0.789700
			CHANNELS 3 Xrotation Yrotation Zrotation
			JOINT Spine1
			{
				OFFSET 0.000000 12.508769 -0.658067
				CHANNELS 3 Xrotation Yrotation Zrotation
				JOINT Spine1_split
				{
					OFFSET 0.000000 12.508769 -0.658067
					CHANNELS 3 Xrotation Yrotation Zrotation
					JOINT Spine2
					{
						OFFSET 0.000000 12.508769 -0.658067
						CHANNELS 3 Xrotation Yrotation Zrotation
						JOINT Neck_virtual
						{
							OFFSET 0.000000 0.000000 0.000000
							CHANNELS 3 Xrotation Yrotation Zrotation
							JOINT Neck
							{
								OFFSET 0.000000 14.033295 7.520400
								CHANNELS 3 Xrotation Yrotation Zrotation
								JOINT Head
								{
									OFFSET 0.000000 8.198502 5.703100
									CHANNELS 3 Xrotation Yrotation Zrotation
									JOINT HeadTop_End
									{
										OFFSET 0.000000 17.760803 13.332701
										CHANNELS 3 Xrotation Yrotation Zrotation
										End Site
										{
											OFFSET 0 0 0
										}
									}
								}
							}
						}
						JOINT LeftShoulder_virtual
						{
							OFFSET 0.000000 0.000000 0.000000
							CHANNELS 3 Xrotation Yrotation Zrotation
							JOINT LeftShoulder
							{
								OFFSET 6.292450 5.785301 -0.669000
								CHANNELS 3 Xrotation Yrotation Zrotation
								JOINT LeftShoulder_split
								{
									OFFSET 6.292450 5.785301 -0.669000
									CHANNELS 3 Xrotation Yrotation Zrotation
									JOINT LeftArm
									{
										OFFSET 13.907140 -6.093903 1.965100
										CHANNELS 3 Xrotation Yrotation Zrotation
										JOINT LeftForeArm
										{
											OFFSET 34.140198 0.000000 0.000000
											CHANNELS 3 Xrotation Yrotation Zrotation
											JOINT LeftHand
											{
												OFFSET 40.960209 0.000000 0.000000
												CHANNELS 3 Xrotation Yrotation Zrotation
												End Site
												{
													OFFSET 0 0 0
												}
											}
										}
									}
								}
							}
						}
						JOINT RightShoulder_virtual
						{
							OFFSET 0.000000 0.000000 0.000000
							CHANNELS 3 Xrotation Yrotation Zrotation
							JOINT RightShoulder
							{
								OFFSET -6.292450 5.785301 -0.669000
								CHANNELS 3 Xrotation Yrotation Zrotation
								JOINT RightShoulder_split
								{
									OFFSET -6.292450 5.785301 -0.669000
									CHANNELS 3 Xrotation Yrotation Zrotation
									JOINT RightArm
									{
										OFFSET -13.907140 -6.093903 1.965100
										CHANNELS 3 Xrotation Yrotation Zrotation
										JOINT RightForeArm
										{
											OFFSET -34.140198 0.000000 0.000000
											CHANNELS 3 Xrotation Yrotation Zrotation
											JOINT RightHand
											{
												OFFSET -40.960209 0.000000 0.000000
												CHANNELS 3 Xrotation Yrotation Zrotation
												End Site
												{
													OFFSET 0 0 0
												}
											}
										}
									}
								}
							}
						}
					}
				}
			}
		}
	}
}
MOTION
Frames: 9
Frame Time: 0.03333333
0.116979 106.885612 -11.587284 0.000000 0.000000 0.000000 -2.800632 -36.608506 -0.730409 -33.073859 3.812823 12.006959 30.143889 -2.075573 0.621473 4.285809 -4.608321 -10.680866 0.927791 -0.544559 2.081155 0.000000 0.000000 0.000000 -2.669839 -35.988653 -0.715923 -1.228067 -22.222014 -13.722655 25.704918 9.230974 -1.837062 -20.073904 -17.772731 21.060489 2.146962 3.871747 -6.632609 0.000000 0.000000 0.000000 -2.623280 -29.101759 -1.773881 5.767665 4.895309 -1.722821 11.280351 5.602430 -2.358664 0.179996 -0.525822 0.088679 0.000000 0.000000 0.000000 12.410688 8.364010 -2.256195 -8.802598 4.819489 5.641836 -27.395569 3.000952 -3.039937 0.000000 0.000000 0.000000 9.717340 6.696679 -2.888053 2.872628 1.531453 -4.985509 0.941816 -3.109910 -0.784913 -19.912518 -2.121666 -61.857663 11.940461 -39.195184 4.846669 0.000000 0.000000 0.000000 11.564123 6.805869 -1.978402 0.722881 5.371894 10.422742 -7.582215 0.562042 0.849936 1.849684 -15.715403 58.563333 -18.254507 33.370170 14.167388 0.000000 0.000000 0.000000 
0.074022 106.869644 -11.535770 0.000000 0.000000 0.000000 -2.818813 -36.578839 -0.722564 -33.057716 3.796794 12.000377 30.192448 -2.035695 0.630068 4.237607 -4.540882 -10.626810 1.003305 -0.539809 2.049822 0.000000 0.000000 0.000000 -2.641558 -35.956923 -0.696572 -1.220220 -22.124171 -13.747209 25.668500 9.247280 -1.841811 -20.041747 -17.771978 21.073237 2.172468 3.872888 -6.613408 0.000000 0.000000 0.000000 -2.648144 -29.178650 -1.761754 5.780886 4.876655 -1.746050 11.246364 5.589364 -2.355028 0.181865 -0.518183 0.087349 0.000000 0.000000 0.000000 12.396445 8.344799 -2.231418 -8.881080 4.844383 5.593312 -27.231297 3.060919 -3.083789 0.000000 0.000000 0.000000 9.688649 6.688432 -2.878180 2.884107 1.515785 -4.989904 0.969712 -3.152044 -0.776845 -19.974716 -2.119388 -61.854876 11.961358 -39.289727 4.890724 0.000000 0.000000 0.000000 11.555038 6.799966 -1.961269 0.753873 5.465170 10.399650 -7.576061 0.548657 0.850262 1.791407 -15.689868 58.610980 -18.217498 33.250679 14.140711 0.000000 0.000000 0.000000 
0.040872 106.854439 -11.484829 0.000000 0.000000 0.000000 -2.831229 -36.679458 -0.705661 -32.974053 3.799233 11.989145 30.228488 -1.976060 0.657708 4.137815 -4.437095 -10.589727 1.087512 -0.532149 2.014265 0.000000 0.000000 0.000000 -2.636701 -36.033472 -0.672349 -1.228016 -22.055519 -13.766633 25.622408 9.284170 -1.865372 -20.041160 -17.766456 21.085839 2.252478 3.865946 -6.653153 0.000000 0.000000 0.000000 -2.703835 -29.342356 -1.752965 5.808626 4.834872 -1.770694 11.214927 5.540333 -2.341168 0.180928 -0.503962 0.086900 0.000000 0.000000 0.000000 12.364600 8.290295 -2.201735 -8.933498 4.893040 5.504148 -26.986991 3.417070 -2.962970 0.000000 0.000000 0.000000 9.665628 6.642601 -2.863924 2.892260 1.483017 -4.995276 0.978909 -3.188597 -0.790393 -19.946770 -2.101366 -61.847971 12.011747 -39.422544 4.941604 0.000000 0.000000 0.000000 11.554878 6.766729 -1.936123 0.779883 5.609792 10.352968 -7.544396 0.482287 0.820381 1.692074 -15.681781 58.692232 -18.125355 33.061490 14.048331 0.000000 0.000000 0.000000 
0.008405 106.842094 -11.449306 0.000000 0.000000 0.000000 -2.850808 -36.901087 -0.680569 -32.870647 3.814464 11.978573 30.272269 -1.926845 0.702073 4.041717 -4.337895 -10.597242 1.146908 -0.524269 1.988182 0.000000 0.000000 0.000000 -2.640194 -36.171616 -0.637499 -1.245459 -22.023151 -13.772348 25.594003 9.324018 -1.903955 -20.057977 -17.759101 21.092734 2.361912 3.850221 -6.746674 0.000000 0.000000 0.000000 -2.781611 -29.569754 -1.747875 5.855003 4.769773 -1.793534 11.185217 5.455244 -2.320440 0.178136 -0.483691 0.089192 0.000000 0.000000 0.000000 12.322032 8.199609 -2.169469 -8.964685 4.967735 5.376552 -26.681991 4.065579 -2.689930 0.000000 0.000000 0.000000 9.643985 6.559116 -2.847272 2.895783 1.440105 -5.000695 0.942716 -3.208772 -0.809063 -19.839852 -2.047156 -61.849446 12.076504 -39.573529 4.989967 0.000000 0.000000 0.000000 11.558496 6.703546 -1.903156 0.803610 5.801276 10.283572 -7.513393 0.357245 0.778333 1.567339 -15.705622 58.786803 -17.994065 32.833204 13.906215 0.000000 0.000000 0.000000 
-0.022756 106.836494 -11.411327 0.000000 0.000000 0.000000 -2.882066 -37.198655 -0.651055 -32.771599 3.849291 11.970033 30.323509 -1.886685 0.757219 3.983944 -4.264910 -10.637093 1.181786 -0.517653 1.975849 0.000000 0.000000 0.000000 -2.661560 -36.355437 -0.603143 -1.268238 -22.020834 -13.760439 25.571453 9.357645 -1.951012 -20.059528 -17.746286 21.105460 2.439180 3.826529 -6.885489 0.000000 0.000000 0.000000 -2.874030 -29.821019 -1.745844 5.920737 4.682298 -1.810474 11.153595 5.334046 -2.298878 0.177396 -0.462348 0.089500 0.000000 0.000000 0.000000 12.272961 8.073407 -2.137228 -8.983725 5.071637 5.210490 -26.329525 4.975542 -2.283619 0.000000 0.000000 0.000000 9.622190 6.437125 -2.831927 2.892671 1.390289 -5.001297 0.868761 -3.202751 -0.845574 -19.688568 -1.955209 -61.857533 12.132185 -39.734298 5.019262 0.000000 0.000000 0.000000 11.561517 6.608497 -1.866379 0.826734 6.034502 10.202569 -7.485770 0.172998 0.749622 1.432911 -15.782622 58.870254 -17.844325 32.580235 13.734739 0.000000 0.000000 0.000000 
-0.051167 106.842667 -11.365490 0.000000 0.000000 0.000000 -2.921140 -37.515753 -0.621041 -32.688705 3.901708 11.950514 30.370703 -1.836285 0.817880 3.969761 -4.215628 -10.678996 1.226725 -0.511406 1.970367 0.000000 0.000000 0.000000 -2.703110 -36.564345 -0.577700 -1.282375 -22.028777 -13.726229 25.542848 9.375197 -2.003212 -20.046680 -17.720931 21.120419 2.475134 3.794968 -7.055607 0.000000 0.000000 0.000000 -2.958547 -30.082667 -1.743699 6.000478 4.575522 -1.817183 11.113880 5.178878 -2.284174 0.175116 -0.439830 0.086274 0.000000 0.000000 0.000000 12.225505 7.913601 -2.109496 -9.007341 5.202498 5.006855 -25.944945 6.128628 -1.772145 0.000000 0.000000 0.000000 9.598312 6.281153 -2.823829 2.883367 1.335674 -5.003623 0.804482 -3.183100 -0.873770 -19.507314 -1.822501 -61.868072 12.162454 -39.902590 5.018500 0.000000 0.000000 0.000000 11.561039 6.480319 -1.831682 0.847235 6.303024 10.121726 -7.443424 -0.018137 0.737713 1.299546 -15.917411 58.919227 -17.697701 32.318987 13.558337 0.000000 0.000000 0.000000 
-0.077002 106.861610 -11.293171 0.000000 0.000000 0.000000 -2.954114 -37.798981 -0.587938 -32.612077 3.946336 11.904683 30.392648 -1.761670 0.889997 3.977122 -4.170949 -10.697867 1.314881 -0.504321 1.964467 0.000000 0.000000 0.000000 -2.755855 -36.774589 -0.567349 -1.271808 -22.042438 -13.659328 25.510424 9.363824 -2.056982 -20.039527 -17.676950 21.091732 2.527266 3.754415 -7.237385 0.000000 0.000000 0.000000 -3.015406 -30.349191 -1.737588 6.090060 4.454906 -1.811540 11.059787 4.996383 -2.281482 0.170073 -0.421962 0.079893 0.000000 0.000000 0.000000 12.183456 7.725242 -2.089152 -9.051088 5.351122 4.770762 -25.548949 7.497872 -1.188069 0.000000 0.000000 0.000000 9.575141 6.098172 -2.825638 2.869934 1.277295 -5.003573 0.753286 -3.148070 -0.885517 -19.295324 -1.653180 -61.865374 12.163368 -40.076401 4.985638 0.000000 0.000000 0.000000 11.559031 6.322644 -1.805696 0.865465 6.606923 10.055516 -7.410856 -0.205279 0.737255 1.177395 -16.106091 58.924698 -17.571801 32.063961 13.403404 0.000000 0.000000 0.000000 
-0.096102 106.898102 -11.194950 0.000000 0.000000 0.000000 -2.976439 -38.007250 -0.552353 -32.524142 3.963120 11.812600 30.381539 -1.649668 0.974055 3.966422 -4.125546 -10.663232 1.457346 -0.496685 1.955214 0.000000 0.000000 0.000000 -2.802223 -36.987841 -0.559636 -1.232832 -22.057756 -13.563393 25.469342 9.317602 -2.111585 -20.069847 -17.613876 20.993824 2.630681 3.706669 -7.417117 0.000000 0.000000 0.000000 -3.030094 -30.605354 -1.716040 6.189928 4.325738 -1.797906 10.984980 4.796495 -2.291740 0.167552 -0.407511 0.076014 0.000000 0.000000 0.000000 12.146993 7.516680 -2.077777 -9.133249 5.513881 4.511214 -25.161981 9.013813 -0.570281 0.000000 0.000000 0.000000 9.551402 5.898988 -2.838191 2.851192 1.213657 -5.009323 0.722915 -3.130685 -0.871872 -19.048127 -1.459172 -61.839822 12.157693 -40.258996 4.937369 0.000000 0.000000 0.000000 11.564025 6.143063 -1.796573 0.877739 6.946145 10.014144 -7.391210 -0.381859 0.736864 1.065435 -16.337836 58.887849 -17.472561 31.825178 13.286251 0.000000 0.000000 0.000000 
-0.109426 106.947502 -11.098873 0.000000 0.000000 0.000000 -2.989358 -38.157091 -0.513836 -32.417130 3.928437 11.673075 30.326487 -1.499225 1.066125 3.926140 -4.089872 -10.558608 1.622732 -0.492072 1.947005 0.000000 0.000000 0.000000 -2.828410 -37.198638 -0.541292 -1.186738 -22.076507 -13.459197 25.435225 9.245514 -2.168522 -20.140418 -17.521515 20.869344 2.743418 3.658774 -7.591591 0.000000 0.000000 0.000000 -3.003378 -30.845025 -1.679319 6.298915 4.193850 -1.781308 10.888926 4.590858 -2.310314 0.166921 -0.394230 0.076642 0.000000 0.000000 0.000000 12.123091 7.298022 -2.073672 -9.276204 5.693914 4.239866 -24.800782 10.635112 0.054234 0.000000 0.000000 0.000000 9.531339 5.695242 -2.857408 2.829568 1.143050 -5.028959 0.698280 -3.132285 -0.857332 -18.762140 -1.256855 -61.784027 12.172082 -40.452028 4.899773 0.000000 0.000000 0.000000 11.580730 5.950666 -1.802017 0.879762 7.315512 10.012266 -7.384401 -0.533833 0.719511 0.946972 -16.603620 58.810149 -17.396060 31.594515 13.211961 0.000000 0.000000 0.000000 
